<?xml version="1.0" standalone="no"?>
<!DOCTYPE svg PUBLIC "-//W3C//DTD SVG 20010904//EN"
 "http://www.w3.org/TR/2001/REC-SVG-20010904/DTD/svg10.dtd">
<svg version="1.0" xmlns="http://www.w3.org/2000/svg"
 width="1024.000000pt" height="1024.000000pt" viewBox="0 0 1024.000000 1024.000000"
 preserveAspectRatio="xMidYMid meet">

<g transform="translate(0.000000,1024.000000) scale(0.100000,-0.100000)"
fill="#000000" stroke="none">
<path d="M0 5120 l0 -5120 4720 0 4720 0 0 80 0 80 320 0 320 0 0 -80 0 -80
80 0 80 0 0 5120 0 5120 -5120 0 -5120 0 0 -5120z m5081 1391 c52 -55 104
-103 117 -106 13 -3 48 -29 77 -56 l54 -51 93 94 c92 92 167 157 220 192 71
46 588 -8 951 -99 120 -31 372 -116 507 -172 108 -45 376 -178 465 -231 199
-117 311 -192 465 -313 120 -94 198 -196 108 -141 -56 34 -220 100 -309 124
-124 34 -272 31 -394 -6 -98 -31 -194 -75 -214 -100 -19 -23 -28 -21 -89 26
-151 114 -367 177 -567 165 -135 -8 -252 -53 -344 -134 -49 -43 -51 -43 -75
-28 -13 9 -57 26 -97 38 -106 31 -305 31 -401 0 -95 -31 -161 -67 -204 -110
-51 -53 -61 -70 -79 -138 -35 -130 -46 -276 -55 -735 -9 -511 -17 -732 -30
-900 -5 -63 -12 -164 -15 -225 -8 -153 -24 -370 -31 -430 -19 -148 -38 127
-49 710 -4 176 -2 610 3 965 9 525 8 649 -3 665 -7 11 -42 51 -77 87 -167 173
-452 209 -604 75 l-44 -39 -67 51 c-229 173 -510 219 -785 130 -79 -26 -201
-87 -265 -132 l-48 -35 -63 58 c-83 75 -161 106 -301 120 -85 9 -124 8 -211
-5 -120 -17 -265 -63 -322 -100 -43 -29 -48 -30 -48 -11 0 31 201 180 330 245
47 24 90 47 95 51 12 10 192 100 255 128 546 243 1256 417 1900 465 25 2 48 4
52 5 4 1 48 -43 99 -97z m2451 -2086 c18 -36 36 -65 40 -65 4 0 26 27 50 60
l42 60 67 0 67 0 5 -247 c3 -137 10 -277 15 -313 6 -36 7 -67 2 -70 -5 -3 -53
-5 -106 -5 l-99 0 -6 38 c-3 21 -13 45 -21 53 -23 23 -48 -7 -48 -57 l0 -40
-107 3 -108 3 -3 310 c-1 170 0 315 3 322 3 9 30 13 90 13 l85 0 32 -65z
m-2875 43 c4 -7 20 -46 34 -87 l25 -75 30 85 29 84 110 0 110 0 0 -315 0 -315
-117 -3 -116 -3 -13 71 c-7 41 -17 70 -24 70 -14 0 -25 -44 -25 -96 l0 -34
-100 0 -100 0 0 73 c0 48 7 93 21 132 19 54 20 72 14 220 -4 89 -4 171 -1 183
6 19 15 22 61 22 31 0 57 -5 62 -12z m-1819 -178 c3 -181 -9 -314 -34 -362
-24 -46 -81 -78 -140 -78 -63 0 -112 16 -117 38 -10 48 41 112 89 112 59 0 64
18 64 241 0 109 3 205 6 214 5 13 19 15 68 13 l61 -3 3 -175z m628 147 c24
-28 24 -29 24 -260 0 -316 -5 -325 -191 -326 -132 -1 -123 -21 -127 289 -4
338 -7 332 171 327 94 -2 100 -3 123 -30z m2935 13 c18 -10 19 -24 19 -294 0
-250 -2 -285 -16 -290 -9 -3 -78 -6 -154 -6 l-139 0 -3 293 c-2 160 -2 295 0
300 5 11 271 8 293 -3z"/>
<path d="M3284 4337 c-2 -7 -3 -89 -2 -182 l3 -170 40 0 40 0 3 174 c2 133 -1
176 -10 183 -20 12 -68 9 -74 -5z"/>
<path d="M6236 4304 c-20 -20 -20 -43 0 -72 29 -42 104 -22 104 28 0 36 -23
60 -60 60 -16 0 -36 -7 -44 -16z"/>
<path d="M6243 4103 c-8 -3 -13 -23 -13 -48 0 -45 10 -55 55 -55 42 0 72 69
43 98 -12 12 -62 15 -85 5z"/>
</g>
</svg>
